<svg width="184" height="187" viewBox="0 0 184 187" fill="none" xmlns="http://www.w3.org/2000/svg">
<rect width="184" height="187" fill="#1E1E1E"/>
<mask id="mask0_0_1" style="mask-type:alpha" maskUnits="userSpaceOnUse" x="0" y="0" width="184" height="184">
<circle cx="92" cy="92" r="92" fill="#95BFD3"/>
</mask>
<g mask="url(#mask0_0_1)">
<circle cx="92" cy="92" r="97" fill="#3C3D59"/>
<path d="M215.5 180.5C59.5 162 28.5 122.5 6.5 29L-79 98.5L-12.5 194.5L215.5 180.5Z" fill="#30314A"/>
<path d="M92 9C117.371 9 140.083 20.3828 155.308 38.3203L142.523 51.1035C130.606 36.3996 112.401 27 92 27C87.893 27 83.8752 27.382 79.9795 28.1104L75.3096 10.6787C80.7012 9.57801 86.2832 9 92 9Z" fill="#666786"/>
</g>
<path d="M128.5 13.5L118 39.5L119.5 44L137 17L128.5 13.5Z" fill="#3C3D59"/>
<path d="M44.616 141.28C42.056 141.28 40.008 140.597 38.472 139.232C36.936 137.867 36.168 135.989 36.168 133.6V80.864C36.168 70.9653 38.984 63.2 44.616 57.568C50.248 51.936 58.0133 49.12 67.912 49.12C72.6907 49.12 77.1707 50.3147 81.352 52.704C85.6187 55.008 89.288 58.336 92.36 62.688C95.3467 58.2507 98.9307 54.88 103.112 52.576C107.379 50.272 111.987 49.12 116.936 49.12C126.835 49.12 134.6 51.936 140.232 57.568C145.864 63.2 148.68 70.9653 148.68 80.864V133.6C148.68 135.904 147.869 137.781 146.248 139.232C144.712 140.597 142.664 141.28 140.104 141.28C137.544 141.28 135.496 140.597 133.96 139.232C132.424 137.867 131.656 135.989 131.656 133.6V80.864C131.656 74.3787 130.461 69.728 128.072 66.912C125.683 64.0107 121.757 62.56 116.296 62.56C111.347 62.56 107.507 64.1387 104.776 67.296C102.131 70.4533 100.808 74.976 100.808 80.864V133.6C100.808 135.989 100.04 137.867 98.504 139.232C96.968 140.597 94.92 141.28 92.36 141.28C89.8 141.28 87.752 140.597 86.216 139.232C84.7653 137.867 84.04 135.989 84.04 133.6V80.864C84.04 75.1467 82.6747 70.6667 79.944 67.424C77.2133 64.1813 73.416 62.56 68.552 62.56C63.0907 62.56 59.1653 64.0107 56.776 66.912C54.3867 69.728 53.192 74.3787 53.192 80.864V133.6C53.192 135.904 52.3813 137.781 50.76 139.232C49.224 140.597 47.176 141.28 44.616 141.28Z" fill="#CE5A5A"/>
<mask id="mask1_0_1" style="mask-type:alpha" maskUnits="userSpaceOnUse" x="16" y="159" width="152" height="28">
<path d="M18.0188 165.869C18.5818 161.927 21.9572 159 25.9384 159H158.062C162.043 159 165.418 161.927 165.981 165.869L167.696 177.869C168.384 182.688 164.644 187 159.776 187H24.2241C19.3557 187 15.616 182.688 16.3045 177.869L18.0188 165.869Z" fill="#CE5A5A"/>
</mask>
<g mask="url(#mask1_0_1)">
<rect x="15" y="159" width="154" height="28" rx="8" fill="#CE5A5A"/>
<path d="M57.35 179.16C19.95 175.24 18.85 174.12 10.05 164.04L-4.8 192.04L180 194.28C178.533 189.24 174.83 179.384 171.75 180.28C167.9 181.4 94.75 183.08 57.35 179.16Z" fill="#AD4949"/>
</g>
</svg>
